<svg xmlns="http://www.w3.org/2000/svg" viewBox="0 0 512 512">
  <defs>
    <linearGradient id="bg" x1="0%" y1="0%" x2="100%" y2="100%">
      <stop offset="0%" style="stop-color:#FF7EB3"/>
      <stop offset="100%" style="stop-color:#FF4E8E"/>
    </linearGradient>
  </defs>
  <rect width="512" height="512" rx="128" fill="url(#bg)"/>
  <g transform="translate(110, 56) scale(1.05)">
    <path d="
      M 120 40
      C 90 40, 70 52, 70 52
      Q 55 62, 55 80
      L 55 380
      Q 55 395, 62 400
      C 65 402, 68 400, 68 400

      M 80 72
      Q 80 58, 95 50
      C 110 42, 140 40, 165 46
      C 200 55, 225 80, 225 115
      C 225 150, 205 175, 175 188
      C 165 193, 150 196, 140 196

      M 85 196
      C 105 196, 130 196, 155 198
      C 195 202, 240 225, 245 270
      C 250 315, 225 355, 185 375
      C 155 390, 120 390, 95 385
      Q 78 380, 70 370
    "
    fill="none"
    stroke="white"
    stroke-width="28"
    stroke-linecap="round"
    stroke-linejoin="round"
    />
    <path d="
      M 72 60
      C 68 55, 72 48, 80 45
      Q 90 40, 95 38
      C 100 36, 108 38, 105 42
      Q 100 48, 90 52
      C 82 56, 76 56, 72 60
    "
    fill="white"
    opacity="0.7"
    />
  </g>
</svg>
